<?xml version="1.0" encoding="utf-8"?>
<!-- Generator: Adobe Illustrator 25.4.1, SVG Export Plug-In . SVG Version: 6.00 Build 0)  -->
<svg version="1.1" id="Layer_1" xmlns="http://www.w3.org/2000/svg" xmlns:xlink="http://www.w3.org/1999/xlink" x="0px" y="0px"
	 viewBox="0 0 610 93" style="enable-background:new 0 0 610 93;" xml:space="preserve">
<style type="text/css">
	.st0{fill:#F2C029;}
	.st1{fill:#000C96;}
	.st2{fill:none;}
	.st3{fill:#000C96;stroke:#000C96;stroke-miterlimit:10;}
	.st4{font-family:'FredokaOne-Regular';}
	.st5{font-size:39.4509px;}
</style>
<g>
	<g>
		<path class="st0" d="M27.5,85.6l-12.8-5.2c0,0-0.1-0.1-0.1-0.1c0,0,0-0.1,0-0.1l29.7-54.9c0-0.1,0.1-0.1,0.1-0.1
			c0.1,0,0.1,0,0.2,0.1c0,0,0,0.1,0,0.2L27.7,85.4C27.7,85.5,27.6,85.6,27.5,85.6L27.5,85.6z"/>
		<path class="st0" d="M44.4,25.2C44.4,25.2,44.5,25.2,44.4,25.2c0.1,0.1,0.1,0.1,0.1,0.1L27.6,85.4c0,0-0.1,0.1-0.1,0.1
			c0,0,0,0,0,0l-12.8-5.2c0,0-0.1,0-0.1-0.1c0,0,0,0,0-0.1L44.4,25.2C44.4,25.2,44.4,25.2,44.4,25.2 M44.4,25c-0.1,0-0.2,0-0.2,0.1
			L14.5,80.1c-0.1,0.1,0,0.3,0.1,0.4l12.8,5.2c0,0,0.1,0,0.1,0c0.1,0,0.2-0.1,0.2-0.2l16.9-60.1C44.7,25.1,44.6,25,44.4,25L44.4,25z
			"/>
	</g>
	<g>
		<polygon class="st0" points="46.6,20.9 41.5,21.2 44.3,16.9 42.4,12.2 47.4,13.5 51.4,10.2 51.6,15.4 55.9,18.1 51.1,19.9 
			49.8,24.9 		"/>
		<path class="st0" d="M50.1,13l0.1,1.7l0.1,1.4l1.2,0.8l1.4,0.9l-1.6,0.6l-1.3,0.5l-0.4,1.4l-0.4,1.6l-1-1.3l-0.9-1.1l-1.4,0.1
			l-1.7,0.1l0.9-1.4l0.8-1.2l-0.5-1.3l-0.6-1.6l1.6,0.5l1.4,0.4l1.1-0.9L50.1,13 M52.6,7.4L47.1,12l-6.9-1.9l2.7,6.7l-4,6l7.2-0.5
			l4.5,5.6l1.8-7l6.7-2.5l-6.1-3.8L52.6,7.4L52.6,7.4z"/>
	</g>
	<g>
		<path class="st1" d="M14,38c-0.3-2,0-4.1,0.9-5.9c0.8-1.8,2.2-3.4,4-4.5c-1.4,1.4-2.6,3-3.4,4.8C14.6,34.1,14.2,36,14,38z"/>
		<path class="st1" d="M27.3,22.5c-6.5,0-12.3,3-14.8,8.4c-3.7,8,1.3,18.2,11.2,22.7c0.9,0.4,1.9,0.8,2.8,1.1
			c-8.1-5-11.9-14-8.5-21.3C20.4,28,26.2,25,32.7,25c2.3,0,4.6,0.4,6.9,1.1c-0.8-0.5-1.7-1-2.7-1.5C33.8,23.2,30.4,22.5,27.3,22.5
			L27.3,22.5z"/>
	</g>
	<g>
		<path class="st1" d="M51,75.4c1.3-1.5,2.3-3.2,3-5c0.7-1.9,1-3.8,1-5.7c0.4,2,0.3,4.1-0.4,6C53.9,72.4,52.7,74.1,51,75.4z"/>
		<path class="st1" d="M41.2,48.9c8.5,4.3,13,13,10.3,20.5c-2.2,6.1-8.6,9.7-15.9,9.7c-1.7,0-3.4-0.2-5.1-0.6
			c0.9,0.5,1.8,0.9,2.8,1.2c2.7,1,5.4,1.4,8.1,1.4c7.3,0,13.7-3.6,15.9-9.7c3-8.3-2.8-18-13.1-21.7C43.1,49.4,42.1,49.1,41.2,48.9
			L41.2,48.9z"/>
	</g>
</g>
<rect x="71.7" y="29.3" class="st2" width="528.8" height="40"/>
<text transform="matrix(1 0 0 1 71.7063 59.8212)" class="st3 st4 st5">Sprites and Selkies Daycare</text>
</svg>
